<svg viewBox="0 0 175 45"  fill="currentColor" xmlns="http://www.w3.org/2000/svg"><path d="M10.56 9.513v8.956h17.615v8.562H10.56v16.354H0V.781h29.79v8.732H10.56zM61.003 34.656v8.732h-27.73V.78H43.83v33.875h17.173zM99.644 22.084c0 14.017-7.782 22.25-19.23 22.25-11.447 0-19.227-8.068-19.227-22.25C61.188 8.067 68.97 0 80.416 0c11.444 0 19.23 8.067 19.23 22.084zm-11.17-.056c0-9.346-3.166-12.793-8.06-12.793-4.831 0-8.057 3.447-8.057 12.793 0 9.456 3.223 12.792 8.058 12.792 4.89 0 8.06-3.334 8.06-12.793zM137.461.78l-15.448 27.035v15.573h-10.559V27.815L96.006.78h11.669l9.223 17.52h.556l9.113-17.52h10.894zM175 22.027c0 12.793-7.002 21.36-19.505 21.36H139.1V.782h16.171C167.998.78 175 9.29 175 22.028zm-10.892 0c0-9.186-3.779-12.014-10.67-12.014h-3.779v24.14h3.779c6.891.003 10.67-2.777 10.67-12.125z" fill="currentColor"/></svg>