<svg xmlns="http://www.w3.org/2000/svg" viewBox="0 0 105 36" fill="currentColor"><path d="M35.701 35.677H16.527c-.61 0-.823-.154-.874-.624-.043-.401.1-.73.512-.779 1.413-.169 1.796-1.102 1.814-2.337.005-.332.038-.664.038-.996.003-3.692.018-7.384-.01-11.076a10.766 10.766 0 0 0-.266-2.4c-.506-2.123-2.073-2.869-4.06-2.519-2.063.364-3.382 1.934-3.657 4.232a13.853 13.853 0 0 0-.097 1.61c-.009 3.676-.005 7.352-.004 11.029 0 .205.013.411.013.617.001.79.418 1.266 1.142 1.505.33.108.667.2 1.002.292.322.089.546.258.535.623-.011.37-.178.647-.545.745a2.588 2.588 0 0 1-.659.074c-3.505.003-7.01.003-10.515 0-.683 0-.874-.167-.89-.698-.01-.342.157-.531.453-.64.207-.076.42-.14.627-.217.82-.302 1.24-.89 1.269-1.763.016-.507.056-1.013.056-1.52.004-7.02.006-14.039-.002-21.058a66.802 66.802 0 0 0-.086-3.371c-.048-.942-.234-1.135-1.13-1.387a7.6 7.6 0 0 0-.507-.125C.242 4.801.006 4.57 0 4.08c-.005-.491.324-.574.67-.642C3.375 2.905 5.945 2 8.357.66c.304-.17.595-.362.897-.535.426-.245.65-.128.695.364.017.189.009.38.008.57-.012 4.389-.027 8.777-.028 13.166 0 .263.115.525.177.788.225-.129.478-.225.67-.391 2.43-2.105 5.19-3.313 8.466-3.111a7.654 7.654 0 0 1 3.79 1.247c1.834 1.201 2.499 2.987 2.588 5.069.025.585.036 1.172.037 1.758.003 4.12 0 8.24.002 12.359 0 1.24.553 1.966 1.755 2.246.91.212 1.826.227 2.711-.128.737-.296 1.17-.842 1.253-1.644.02-.188.03-.379.03-.568.002-4.627.001-9.254 0-13.881 0-.857-.154-1.066-.987-1.317a14.236 14.236 0 0 0-.915-.245c-.433-.1-.562-.38-.576-.8-.015-.44.26-.528.585-.597 2.125-.451 4.206-1.048 6.168-1.994a36.753 36.753 0 0 0 2.34-1.26c.611-.351.908-.238.913.458.015 1.996-.002 3.992-.007 5.989 0 .174-.014.348-.014.522-.002 4.135-.003 8.27 0 12.405 0 .364-.001.733.057 1.09.168 1.019.832 1.622 1.781 1.895a5.532 5.532 0 0 0 3.052.023c1.151-.32 1.805-1.17 1.807-2.37a6377.8 6377.8 0 0 0 0-13.358c0-.237-.035-.474-.057-.71-.048-.515-.326-.86-.817-.993a17.086 17.086 0 0 0-1.437-.305c-.675-.122-.845-.261-.853-.744-.009-.491.147-.627.826-.762 2.76-.547 5.423-1.376 7.904-2.73.32-.174.623-.378.946-.544.504-.26.712-.141.724.417.014.697-.01 1.394.013 2.09.009.251.11.498.168.747.244-.119.529-.191.726-.364 1.042-.911 2.122-1.774 3.407-2.31 2.49-1.038 4.984-1.128 7.423.172 1.006.536 1.666 1.443 2.34 2.327.437.57.556.591 1.088.082 1.463-1.402 3.099-2.517 5.083-3.023 2.733-.698 5.358-.494 7.719 1.182 1.229.873 1.87 2.147 1.99 3.634.128 1.576.211 3.16.225 4.74.032 3.582.011 7.163.01 10.744 0 1.17.333 1.617 1.466 1.947.152.044.307.078.456.13.465.16.63.45.573.953-.054.48-.39.566-.78.584-.174.008-.35.001-.524.001H74.146c-.709-.001-1.024-.217-1.083-.732-.039-.334.061-.595.4-.72.118-.043.238-.084.359-.12 1.219-.366 1.594-.79 1.605-2.066.026-2.882.014-5.765 0-8.647a238.124 238.124 0 0 0-.08-5.035c-.067-2.566-2.348-3.647-4.281-3.238-1.502.318-2.65 1.115-3.042 2.712a1.767 1.767 0 0 0-.052.422c.01 4.546.021 9.092.036 13.638 0 .221.035.442.046.663.033.626.355 1.037.938 1.24.373.129.753.237 1.133.346.395.113.565.364.535.775-.03.408-.236.642-.635.704-.203.03-.41.056-.614.056-3.442.003-6.883.004-10.325 0-.72 0-.983-.23-.986-.793-.002-.336.146-.55.457-.633 1.843-.497 1.936-1.21 1.934-2.821-.004-3.375-.027-6.749-.06-10.123a63.32 63.32 0 0 0-.124-3.037c-.14-2.4-2.01-3.728-4.354-3.129-1.49.382-2.972 1.558-2.927 3.737.075 3.643.029 7.288.042 10.932.003.776.047 1.551.066 2.327.022.905.478 1.48 1.327 1.757.361.118.726.225 1.092.323.376.101.498.369.478.717-.02.346-.17.617-.543.681-.233.04-.472.062-.708.062-6.36.003-12.72.003-19.079.003v.002zm62.304-24.143c1.72.053 3.62.26 5.274 1.395 1.031.708 1.694 1.658 1.72 2.955.026 1.28-.64 2.067-1.913 2.22a6.12 6.12 0 0 1-1.421-.014c-.85-.098-1.484-.557-1.832-1.337a16.004 16.004 0 0 1-.675-1.818c-.41-1.33-.942-1.744-2.341-1.723-.95.015-1.832.249-2.483.992-.881 1.005-.878 2.644.162 3.572 1.103.985 2.35 1.811 3.554 2.68 1.267.916 2.626 1.719 3.82 2.719 1.433 1.199 2.299 2.776 2.351 4.701.061 2.261-.95 4.033-2.633 5.44-2.373 1.985-5.185 2.711-8.219 2.683-1.897-.017-3.766-.25-5.48-1.151-1.053-.553-1.899-1.316-2.283-2.489-.68-2.076.523-3.684 2.704-3.614 1.66.054 2.31.51 2.89 2.094.218.593.396 1.203.552 1.815.238.936.817 1.52 1.773 1.59.716.052 1.473.065 2.16-.108 2.282-.572 3.048-3.158 1.4-4.837-.89-.906-1.944-1.668-2.994-2.395-1.508-1.045-3.13-1.93-4.424-3.262-1.744-1.794-2.462-3.893-1.753-6.348.55-1.904 1.893-3.188 3.557-4.152 1.948-1.13 4.072-1.622 6.534-1.608zM30.79 5.999c-.003-2.25 1.821-4.089 4.064-4.095 2.242-.007 4.128 1.847 4.117 4.05-.011 2.298-1.805 4.126-4.073 4.149-2.252.022-4.104-1.828-4.108-4.104z"/></svg>