<svg xmlns="http://www.w3.org/2000/svg" viewBox="0 0 124 36"><path fill="currentColor" fill-rule="nonzero" d="M.015 6.712h4.324v9.618h9.119V6.712h4.33v23.61h-4.33v-9.82h-9.12v9.82H.016V6.712zm31.47 15.92V12.467h4.099v10.165c0 4.24-3.446 7.69-7.681 7.69-4.236 0-7.682-3.45-7.682-7.69V12.467h4.1v10.165a3.588 3.588 0 0 0 3.582 3.584 3.588 3.588 0 0 0 3.582-3.584zM47.03 12.586c4.592 0 8.541 3.843 8.541 8.868 0 5.09-4.282 8.868-9.17 8.868-4.397 0-8.31-3.712-8.31-9.131V6.712h4.114v7.813c1.37-1.348 2.79-1.939 4.825-1.939zm.102 13.925c2.362 0 4.495-2.33 4.495-5.057 0-2.727-2.133-5.058-4.495-5.058-2.788 0-4.92 2.331-4.92 5.058 0 2.726 2.132 5.057 4.92 5.057zm15.349-12.887c0 3.842 9.808 1.083 9.808 9.95 0 4.106-3.412 6.734-7.643 6.734-2.821 0-5.182-1.183-7.086-3.515l2.986-3.087c1.114 1.248 1.902 2.43 4.33 2.43 1.541 0 2.886-1.216 2.886-2.594 0-4.467-9.809-1.938-9.809-9.918 0-4.303 3.215-6.898 7.677-6.898 2.23 0 4.952 1.248 6.296 3.055l-2.689 3.152c-1.049-1.117-2.656-2.036-3.87-2.036-1.508 0-2.886.656-2.886 2.727zm20.638-1.27c4.887 0 9.17 3.777 9.17 8.868 0 5.025-3.95 8.868-8.542 8.868-2.035 0-3.454-.592-4.825-1.939v7.85h-4.114V21.484c0-5.421 3.914-9.13 8.31-9.13zm.73 13.926c2.362 0 4.495-2.334 4.495-5.058 0-2.727-2.133-5.058-4.494-5.058-2.788 0-4.92 2.331-4.92 5.058 0 2.724 2.132 5.058 4.92 5.058zm38.72.231c.461 0 .986-.033 1.445-.064l-1.017 3.743c-.394.098-1.117.132-1.641.132-3.509 0-6.066-1.873-6.066-5.584V10.22l4.164-1.872v4.763h3.772v3.612h-3.772v7.127c0 1.61.69 2.66 3.115 2.66zm-10.848-9.577c.775 1.349 1.144 2.82 1.144 4.416v.081c0 1.622-.459 3.096-1.291 4.43a8.786 8.786 0 0 1-3.326 3.135 8.758 8.758 0 0 1-4.243 1.074h-.248a9.28 9.28 0 0 1-3.718-.782 9.185 9.185 0 0 1-1.59-.87l-3.575 3.58a2.817 2.817 0 0 1-.692 2.828 2.786 2.786 0 0 1-1.984.823 2.784 2.784 0 0 1-1.983-.823 2.791 2.791 0 0 1-.822-1.985 2.79 2.79 0 0 1 .82-1.986 2.783 2.783 0 0 1 2.947-.647l3.46-3.472a8.255 8.255 0 0 1-1.35-2.35 9.127 9.127 0 0 1-.57-3.143v-.33c0-1.582.508-3.032 1.34-4.35a8.747 8.747 0 0 1 1.475-1.729l-10.424-7.52-.758-.576c-.546.33-1.179.53-1.863.53a3.631 3.631 0 0 1-3.629-3.634A3.63 3.63 0 0 1 84.47 0a3.63 3.63 0 0 1 3.628 3.634c0 .335-.066.652-.15.96 3.594 2.73 9.738 7.405 11.612 8.83a9.477 9.477 0 0 1 2.891-.908V8.198c-1.21-.515-1.92-1.654-1.92-2.984a3.287 3.287 0 0 1 3.287-3.28 3.265 3.265 0 0 1 3.26 3.28c0 1.33-.752 2.47-1.963 2.984v4.317a8.813 8.813 0 0 1 3.322 1.152c1.387.82 2.496 1.909 3.285 3.267zm-4.369 7.511c.845-.93 1.268-1.955 1.268-3.062 0-.166-.007-.34-.02-.51a5.117 5.117 0 0 0-.792-2.257 4.761 4.761 0 0 0-1.764-1.608c-.707-.362-1.456-.518-2.247-.518h-.08c-.873 0-1.657.237-2.39.722a4.957 4.957 0 0 0-1.724 1.888c-.39.722-.544 1.485-.544 2.29v.25c0 .819.272 1.591.771 2.299.484.72 1.075 1.29 1.853 1.69.69.362 1.394.561 2.114.561h.208c1.261 0 2.377-.665 3.347-1.745z"/></svg>