<svg xmlns="http://www.w3.org/2000/svg" viewBox="0 0 120 36"><path fill="currentColor" fill-rule="evenodd" d="M28.56 15.909c-5.784-3.436-15.326-3.751-20.848-2.076a1.678 1.678 0 1 1-.974-3.212c6.339-1.924 16.876-1.552 23.535 2.4a1.678 1.678 0 0 1-1.713 2.888zm-.19 5.088a1.4 1.4 0 0 1-1.924.46c-4.822-2.964-12.176-3.823-17.881-2.09a1.401 1.401 0 0 1-1.746-.933 1.4 1.4 0 0 1 .933-1.745c6.517-1.978 14.62-1.02 20.158 2.384a1.4 1.4 0 0 1 .46 1.924zm-2.195 4.886a1.118 1.118 0 0 1-1.538.372c-4.214-2.575-9.518-3.157-15.765-1.73a1.118 1.118 0 1 1-.498-2.18c6.836-1.563 12.7-.89 17.43 2 .527.322.693 1.01.37 1.538zM17.945 0C27.856 0 35.89 8.034 35.89 17.945S27.856 35.89 17.945 35.89C8.035 35.89 0 27.856 0 17.945S8.034 0 17.945 0zm83.773 8.994c1.053 0 1.756.168 2.306.33a.205.205 0 0 1 .136.144l.007.052v2.337a.202.202 0 0 1-.267.194c-.52-.174-.985-.289-1.563-.289-.919 0-1.355.452-1.399 1.458l-.003.173v.383h4.74c.067 0 .128.034.166.087l.023.044 3.24 8.457 2.959-8.451a.204.204 0 0 1 .142-.13l.05-.007h2.888a.203.203 0 0 1 .2.23l-.011.047-4.814 12.437c-.998 2.568-2.13 3.522-4.179 3.522-1.095 0-1.981-.227-2.963-.759a.201.201 0 0 1-.104-.202l.017-.06.94-2.063a.205.205 0 0 1 .12-.11.208.208 0 0 1 .162.015c.526.288 1.041.434 1.53.434.567 0 .991-.174 1.413-1.02l.085-.178-3.968-9.514h-2.59v9.517a.204.204 0 0 1-.15.195l-.054.008h-2.774a.202.202 0 0 1-.195-.15l-.007-.053v-9.517h-1.333a.204.204 0 0 1-.196-.15l-.008-.053v-2.397c0-.093.064-.172.15-.196l.054-.007h1.333v-.587c0-2.728 1.354-4.171 3.917-4.171zM62.292 13.51c2.904 0 5.843 2.236 5.843 6.51 0 4.272-2.94 6.507-5.843 6.507-1.47 0-2.692-.513-3.712-1.563l-.189-.203v4.978a.204.204 0 0 1-.149.197l-.054.007h-2.774a.203.203 0 0 1-.195-.15l-.007-.054V13.968c0-.094.063-.173.148-.197l.054-.007h2.774c.094 0 .172.064.196.15l.007.054v1.419c1.057-1.261 2.339-1.877 3.901-1.877zm13.377 0c3.726 0 6.645 2.86 6.645 6.51 0 3.662-2.939 6.531-6.691 6.531-3.713 0-6.623-2.849-6.623-6.485 0-3.676 2.93-6.556 6.669-6.556zm-28.04-3.92c2.275 0 4.222.675 5.95 2.062a.203.203 0 0 1 .067.22l-.028.056-1.513 2.133a.2.2 0 0 1-.134.083.202.202 0 0 1-.153-.038c-1.453-1.083-2.838-1.609-4.235-1.609-1.442 0-2.41.693-2.41 1.722 0 1.09.55 1.608 3.65 2.347 3.774.918 5.314 2.343 5.314 4.92 0 3.048-2.33 5.018-5.935 5.018-2.548 0-4.91-.905-6.83-2.62a.201.201 0 0 1-.053-.226l.033-.055 1.697-2.018a.201.201 0 0 1 .139-.072.214.214 0 0 1 .149.048c1.65 1.43 3.125 2.039 4.934 2.039 1.628 0 2.64-.705 2.64-1.838 0-1.023-.5-1.595-3.465-2.278-3.484-.842-5.5-1.933-5.5-5.013 0-2.873 2.337-4.88 5.683-4.88zm39.414.85c.093 0 .172.063.195.149l.007.054v3.121h3.053c.094 0 .172.064.195.15l.008.054v2.384a.203.203 0 0 1-.149.196l-.054.007h-3.053v5.735c0 .906.398 1.31 1.288 1.31.577 0 1.094-.124 1.628-.393a.203.203 0 0 1 .287.13l.007.052v2.27c0 .073-.04.141-.103.176-.778.442-1.603.647-2.598.647-2.369 0-3.607-1.184-3.685-3.52l-.004-.237v-6.17h-1.334a.202.202 0 0 1-.194-.15l-.008-.053v-2.384c0-.094.063-.173.149-.197l.053-.007h1.334v-3.121c0-.093.064-.172.15-.196l.054-.007h2.774zm7.725 3.324c.094 0 .173.064.196.15l.008.054v12.104a.204.204 0 0 1-.15.195l-.054.008h-2.774a.203.203 0 0 1-.196-.15l-.007-.053V13.968c0-.094.063-.173.15-.197l.053-.007h2.774zm-19.145 2.584c-1.995 0-3.442 1.544-3.442 3.671 0 2.12 1.499 3.717 3.488 3.717 2.008 0 3.465-1.543 3.465-3.67 0-2.12-1.51-3.718-3.511-3.718zm-13.973-.022c-1.897 0-3.328 1.587-3.328 3.693 0 2.107 1.431 3.694 3.328 3.694 1.92 0 3.26-1.518 3.26-3.694 0-2.14-1.372-3.693-3.26-3.693zm56.06-2.585c1.098 0 1.953.881 1.953 1.951s-.865 1.964-1.963 1.964a1.945 1.945 0 0 1-1.952-1.953c0-1.07.865-1.962 1.962-1.962zm0 .194c-1 0-1.757.795-1.757 1.768s.752 1.758 1.747 1.758c1 0 1.757-.795 1.757-1.769 0-.973-.751-1.757-1.747-1.757zm.12.682c.475 0 .789.243.789.653 0 .336-.194.542-.476.623l.552.773h-.465l-.497-.709h-.428v.71h-.39v-2.05h.915zm-.016.351h-.509v.648h.509c.253 0 .405-.124.405-.324 0-.21-.152-.324-.405-.324zM93.395 8.253a1.99 1.99 0 1 1 0 3.98 1.99 1.99 0 1 1 0-3.98z"/></svg>