<svg viewBox="0 0 132 15" fill="currentColor" xmlns="http://www.w3.org/2000/svg"><path d="M3.546.285l4.957 11.842h.306L13.766.285h3.122l-6.07 14.43H6.407L.336.285h3.21zm19.195 2.61v3.311h9.018v2.61h-9.018v3.311h11.53v2.61H19.793V.307H34.27v2.61H22.74v-.022zM38.245.285H47.7c2.664 0 4.433 1.733 4.433 4.32 0 2.325-1.528 3.926-3.865 4.167.218.22.415.482.524.68l3.341 5.263h-3.34l-3.757-5.921h-3.843v5.92h-2.97c.022 0 .022-14.429.022-14.429zM47.7 6.206c.874 0 1.485-.57 1.485-1.447V4.32c0-.877-.59-1.447-1.485-1.447h-6.507v3.311H47.7v.022zm8.8 8.509V.285h2.97v14.43H56.5zm17.885-4.408c0-1.162-1.288-1.645-4.258-1.645-4.673 0-6.682-1.206-6.682-4.123C63.445 1.601 65.803 0 70.236 0c4.084 0 6.791 1.842 6.791 4.605h-2.97c0-1.206-1.528-2.017-3.843-2.017-2.511 0-3.843.658-3.843 1.93 0 1.096 1.18 1.535 3.974 1.535 4.892 0 6.944 1.293 6.944 4.254 0 3.048-2.467 4.693-7.097 4.693-4.258 0-7.097-1.842-7.097-4.605h2.97c0 1.206 1.66 2.017 4.15 2.017 2.729 0 4.17-.745 4.17-2.105zm9.608-4.1h8.866V.284h2.97v14.43h-2.97V8.794h-8.866v5.92h-2.97V.286h2.97v5.921zM114.26 7.5c0 4.32-3.253 7.5-7.686 7.5s-7.687-3.18-7.687-7.5S102.14 0 106.573 0s7.686 3.18 7.686 7.5zm-3.1 0c0-2.741-1.922-4.759-4.586-4.759-2.664 0-4.586 2.018-4.586 4.759 0 2.741 1.922 4.759 4.586 4.759 2.664 0 4.586-2.018 4.586-4.759zm9.258 7.215h-2.969V.285h9.455c2.664 0 4.433 1.733 4.433 4.32 0 2.478-1.769 4.189-4.433 4.189h-6.507v5.92h.021zm0-8.509h6.508c.873 0 1.485-.57 1.485-1.447V4.32c0-.877-.59-1.447-1.485-1.447h-6.508v3.333z" fill="currentColor"/></svg>